<svg width="454" height="229" viewBox="0 0 454 229" fill="none" xmlns="http://www.w3.org/2000/svg">
<g filter="url(#filter0_dd_81_4845)">
<rect x="20.0084" y="8.2312" width="414" height="200" rx="8" fill="white" shape-rendering="crispEdges"/>
<rect width="390" height="27" transform="translate(32.0084 24.2312)" fill="white"/>
<path d="M48.7824 37.9492C48.7824 36.7252 49.0584 35.6272 49.6104 34.6552C50.1624 33.6712 50.9124 32.9032 51.8604 32.3512C52.8204 31.7992 53.8824 31.5232 55.0464 31.5232C56.4144 31.5232 57.6084 31.8532 58.6284 32.5132C59.6484 33.1732 60.3924 34.1092 60.8604 35.3212H58.8984C58.5504 34.5652 58.0464 33.9832 57.3864 33.5752C56.7384 33.1672 55.9584 32.9632 55.0464 32.9632C54.1704 32.9632 53.3844 33.1672 52.6884 33.5752C51.9924 33.9832 51.4464 34.5652 51.0504 35.3212C50.6544 36.0652 50.4564 36.9412 50.4564 37.9492C50.4564 38.9452 50.6544 39.8212 51.0504 40.5772C51.4464 41.3212 51.9924 41.8972 52.6884 42.3052C53.3844 42.7132 54.1704 42.9172 55.0464 42.9172C55.9584 42.9172 56.7384 42.7192 57.3864 42.3232C58.0464 41.9152 58.5504 41.3332 58.8984 40.5772H60.8604C60.3924 41.7772 59.6484 42.7072 58.6284 43.3672C57.6084 44.0152 56.4144 44.3392 55.0464 44.3392C53.8824 44.3392 52.8204 44.0692 51.8604 43.5292C50.9124 42.9772 50.1624 42.2152 49.6104 41.2432C49.0584 40.2712 48.7824 39.1732 48.7824 37.9492ZM62.6867 39.2632C62.6867 38.2552 62.8907 37.3732 63.2987 36.6172C63.7067 35.8492 64.2647 35.2552 64.9727 34.8352C65.6927 34.4152 66.4907 34.2052 67.3667 34.2052C68.2307 34.2052 68.9807 34.3912 69.6167 34.7632C70.2527 35.1352 70.7267 35.6032 71.0387 36.1672V34.3672H72.6947V44.2312H71.0387V42.3952C70.7147 42.9712 70.2287 43.4512 69.5807 43.8352C68.9447 44.2072 68.2007 44.3932 67.3487 44.3932C66.4727 44.3932 65.6807 44.1772 64.9727 43.7452C64.2647 43.3132 63.7067 42.7072 63.2987 41.9272C62.8907 41.1472 62.6867 40.2592 62.6867 39.2632ZM71.0387 39.2812C71.0387 38.5372 70.8887 37.8892 70.5887 37.3372C70.2887 36.7852 69.8807 36.3652 69.3647 36.0772C68.8607 35.7772 68.3027 35.6272 67.6907 35.6272C67.0787 35.6272 66.5207 35.7712 66.0167 36.0592C65.5127 36.3472 65.1107 36.7672 64.8107 37.3192C64.5107 37.8712 64.3607 38.5192 64.3607 39.2632C64.3607 40.0192 64.5107 40.6792 64.8107 41.2432C65.1107 41.7952 65.5127 42.2212 66.0167 42.5212C66.5207 42.8092 67.0787 42.9532 67.6907 42.9532C68.3027 42.9532 68.8607 42.8092 69.3647 42.5212C69.8807 42.2212 70.2887 41.7952 70.5887 41.2432C70.8887 40.6792 71.0387 40.0252 71.0387 39.2812ZM80.2688 34.1872C81.4688 34.1872 82.4408 34.5532 83.1848 35.2852C83.9288 36.0052 84.3008 37.0492 84.3008 38.4172V44.2312H82.6808V38.6512C82.6808 37.6672 82.4348 36.9172 81.9428 36.4012C81.4508 35.8732 80.7788 35.6092 79.9268 35.6092C79.0628 35.6092 78.3728 35.8792 77.8568 36.4192C77.3528 36.9592 77.1008 37.7452 77.1008 38.7772V44.2312H75.4628V34.3672H77.1008V35.7712C77.4248 35.2672 77.8628 34.8772 78.4148 34.6012C78.9788 34.3252 79.5968 34.1872 80.2688 34.1872ZM90.6485 42.7192L93.7085 34.3672H95.4545L91.5845 44.2312H89.6765L85.8065 34.3672H87.5705L90.6485 42.7192ZM96.4543 39.2632C96.4543 38.2552 96.6583 37.3732 97.0663 36.6172C97.4743 35.8492 98.0323 35.2552 98.7403 34.8352C99.4603 34.4152 100.258 34.2052 101.134 34.2052C101.998 34.2052 102.748 34.3912 103.384 34.7632C104.02 35.1352 104.494 35.6032 104.806 36.1672V34.3672H106.462V44.2312H104.806V42.3952C104.482 42.9712 103.996 43.4512 103.348 43.8352C102.712 44.2072 101.968 44.3932 101.116 44.3932C100.24 44.3932 99.4483 44.1772 98.7403 43.7452C98.0323 43.3132 97.4743 42.7072 97.0663 41.9272C96.6583 41.1472 96.4543 40.2592 96.4543 39.2632ZM104.806 39.2812C104.806 38.5372 104.656 37.8892 104.356 37.3372C104.056 36.7852 103.648 36.3652 103.132 36.0772C102.628 35.7772 102.07 35.6272 101.458 35.6272C100.846 35.6272 100.288 35.7712 99.7843 36.0592C99.2803 36.3472 98.8783 36.7672 98.5783 37.3192C98.2783 37.8712 98.1283 38.5192 98.1283 39.2632C98.1283 40.0192 98.2783 40.6792 98.5783 41.2432C98.8783 41.7952 99.2803 42.2212 99.7843 42.5212C100.288 42.8092 100.846 42.9532 101.458 42.9532C102.07 42.9532 102.628 42.8092 103.132 42.5212C103.648 42.2212 104.056 41.7952 104.356 41.2432C104.656 40.6792 104.806 40.0252 104.806 39.2812ZM112.722 44.3932C111.966 44.3932 111.288 44.2672 110.688 44.0152C110.088 43.7512 109.614 43.3912 109.266 42.9352C108.918 42.4672 108.726 41.9332 108.69 41.3332H110.382C110.43 41.8252 110.658 42.2272 111.066 42.5392C111.486 42.8512 112.032 43.0072 112.704 43.0072C113.328 43.0072 113.82 42.8692 114.18 42.5932C114.54 42.3172 114.72 41.9692 114.72 41.5492C114.72 41.1172 114.528 40.7992 114.144 40.5952C113.76 40.3792 113.166 40.1692 112.362 39.9652C111.63 39.7732 111.03 39.5812 110.562 39.3892C110.106 39.1852 109.71 38.8912 109.374 38.5072C109.05 38.1112 108.888 37.5952 108.888 36.9592C108.888 36.4552 109.038 35.9932 109.338 35.5732C109.638 35.1532 110.064 34.8232 110.616 34.5832C111.168 34.3312 111.798 34.2052 112.506 34.2052C113.598 34.2052 114.48 34.4812 115.152 35.0332C115.824 35.5852 116.184 36.3412 116.232 37.3012H114.594C114.558 36.7852 114.348 36.3712 113.964 36.0592C113.592 35.7472 113.088 35.5912 112.452 35.5912C111.864 35.5912 111.396 35.7172 111.048 35.9692C110.7 36.2212 110.526 36.5512 110.526 36.9592C110.526 37.2832 110.628 37.5532 110.832 37.7692C111.048 37.9732 111.312 38.1412 111.624 38.2732C111.948 38.3932 112.392 38.5312 112.956 38.6872C113.664 38.8792 114.24 39.0712 114.684 39.2632C115.128 39.4432 115.506 39.7192 115.818 40.0912C116.142 40.4632 116.31 40.9492 116.322 41.5492C116.322 42.0892 116.172 42.5752 115.872 43.0072C115.572 43.4392 115.146 43.7812 114.594 44.0332C114.054 44.2732 113.43 44.3932 112.722 44.3932Z" fill="black"/>
<rect x="60.0084" y="63.2312" width="48" height="48" rx="8" fill="#F4F6F8"/>
<path d="M84.0084 80.5645V77.8979C84.0084 76.4312 82.8084 75.2312 81.3417 75.2312H73.3417C71.8751 75.2312 70.6751 76.4312 70.6751 77.8979V96.5645C70.6751 98.0312 71.8751 99.2312 73.3417 99.2312H94.6751C96.1417 99.2312 97.3417 98.0312 97.3417 96.5645V83.2312C97.3417 81.7645 96.1417 80.5645 94.6751 80.5645H84.0084ZM81.3417 96.5645H73.3417V93.8979H81.3417V96.5645ZM81.3417 91.2312H73.3417V88.5645H81.3417V91.2312ZM81.3417 85.8979H73.3417V83.2312H81.3417V85.8979ZM81.3417 80.5645H73.3417V77.8979H81.3417V80.5645ZM94.6751 96.5645H84.0084V83.2312H94.6751V96.5645ZM92.0084 85.8979H86.6751V88.5645H92.0084V85.8979ZM92.0084 91.2312H86.6751V93.8979H92.0084V91.2312Z" fill="#C4CDD5"/>
<path d="M57.8682 129.345C57.8682 128.393 58.0829 127.539 58.5122 126.783C58.9416 126.018 59.5249 125.421 60.2622 124.991C61.0089 124.562 61.8349 124.347 62.7402 124.347C63.8042 124.347 64.7329 124.604 65.5262 125.117C66.3196 125.631 66.8982 126.359 67.2622 127.301H65.7362C65.4656 126.713 65.0736 126.261 64.5602 125.943C64.0562 125.626 63.4496 125.467 62.7402 125.467C62.0589 125.467 61.4476 125.626 60.9062 125.943C60.3649 126.261 59.9402 126.713 59.6322 127.301C59.3242 127.88 59.1702 128.561 59.1702 129.345C59.1702 130.12 59.3242 130.801 59.6322 131.389C59.9402 131.968 60.3649 132.416 60.9062 132.733C61.4476 133.051 62.0589 133.209 62.7402 133.209C63.4496 133.209 64.0562 133.055 64.5602 132.747C65.0736 132.43 65.4656 131.977 65.7362 131.389H67.2622C66.8982 132.323 66.3196 133.046 65.5262 133.559C64.7329 134.063 63.8042 134.315 62.7402 134.315C61.8349 134.315 61.0089 134.105 60.2622 133.685C59.5249 133.256 58.9416 132.663 58.5122 131.907C58.0829 131.151 57.8682 130.297 57.8682 129.345ZM72.5047 134.357C71.786 134.357 71.1327 134.194 70.5447 133.867C69.966 133.541 69.5087 133.079 69.1727 132.481C68.846 131.875 68.6827 131.175 68.6827 130.381C68.6827 129.597 68.8507 128.907 69.1867 128.309C69.532 127.703 69.9987 127.241 70.5867 126.923C71.1747 126.597 71.8327 126.433 72.5607 126.433C73.2887 126.433 73.9467 126.597 74.5347 126.923C75.1227 127.241 75.5847 127.698 75.9207 128.295C76.266 128.893 76.4387 129.588 76.4387 130.381C76.4387 131.175 76.2614 131.875 75.9067 132.481C75.5614 133.079 75.09 133.541 74.4927 133.867C73.8954 134.194 73.2327 134.357 72.5047 134.357ZM72.5047 133.237C72.962 133.237 73.3914 133.13 73.7927 132.915C74.194 132.701 74.516 132.379 74.7587 131.949C75.0107 131.52 75.1367 130.997 75.1367 130.381C75.1367 129.765 75.0154 129.243 74.7727 128.813C74.53 128.384 74.2127 128.067 73.8207 127.861C73.4287 127.647 73.004 127.539 72.5467 127.539C72.08 127.539 71.6507 127.647 71.2587 127.861C70.876 128.067 70.568 128.384 70.3347 128.813C70.1014 129.243 69.9847 129.765 69.9847 130.381C69.9847 131.007 70.0967 131.534 70.3207 131.963C70.554 132.393 70.862 132.715 71.2447 132.929C71.6274 133.135 72.0474 133.237 72.5047 133.237ZM79.3878 123.871V134.231H78.1138V123.871H79.3878ZM82.8331 123.871V134.231H81.5591V123.871H82.8331ZM92.0044 130.101C92.0044 130.344 91.9904 130.601 91.9624 130.871H85.8304C85.8771 131.627 86.1337 132.22 86.6004 132.649C87.0764 133.069 87.6504 133.279 88.3224 133.279C88.8731 133.279 89.3304 133.153 89.6944 132.901C90.0677 132.64 90.3291 132.295 90.4784 131.865H91.8504C91.6451 132.603 91.2344 133.205 90.6184 133.671C90.0024 134.129 89.2371 134.357 88.3224 134.357C87.5944 134.357 86.9411 134.194 86.3624 133.867C85.7931 133.541 85.3451 133.079 85.0184 132.481C84.6917 131.875 84.5284 131.175 84.5284 130.381C84.5284 129.588 84.6871 128.893 85.0044 128.295C85.3217 127.698 85.7651 127.241 86.3344 126.923C86.9131 126.597 87.5757 126.433 88.3224 126.433C89.0504 126.433 89.6944 126.592 90.2544 126.909C90.8144 127.227 91.2437 127.665 91.5424 128.225C91.8504 128.776 92.0044 129.401 92.0044 130.101ZM90.6884 129.835C90.6884 129.35 90.5811 128.935 90.3664 128.589C90.1517 128.235 89.8577 127.969 89.4844 127.791C89.1204 127.605 88.7144 127.511 88.2664 127.511C87.6224 127.511 87.0717 127.717 86.6144 128.127C86.1664 128.538 85.9097 129.107 85.8444 129.835H90.6884ZM96.85 126.433C97.5127 126.433 98.0914 126.578 98.586 126.867C99.09 127.157 99.4634 127.521 99.706 127.959V126.559H100.994V134.399C100.994 135.099 100.845 135.72 100.546 136.261C100.247 136.812 99.818 137.241 99.258 137.549C98.7074 137.857 98.0634 138.011 97.326 138.011C96.318 138.011 95.478 137.773 94.806 137.297C94.134 136.821 93.7374 136.173 93.616 135.351H94.876C95.016 135.818 95.3054 136.191 95.744 136.471C96.1827 136.761 96.71 136.905 97.326 136.905C98.026 136.905 98.5954 136.686 99.034 136.247C99.482 135.809 99.706 135.193 99.706 134.399V132.789C99.454 133.237 99.0807 133.611 98.586 133.909C98.0914 134.208 97.5127 134.357 96.85 134.357C96.1687 134.357 95.548 134.189 94.988 133.853C94.4374 133.517 94.0034 133.046 93.686 132.439C93.3687 131.833 93.21 131.142 93.21 130.367C93.21 129.583 93.3687 128.897 93.686 128.309C94.0034 127.712 94.4374 127.25 94.988 126.923C95.548 126.597 96.1687 126.433 96.85 126.433ZM99.706 130.381C99.706 129.803 99.5894 129.299 99.356 128.869C99.1227 128.44 98.8054 128.113 98.404 127.889C98.012 127.656 97.578 127.539 97.102 127.539C96.626 127.539 96.192 127.651 95.8 127.875C95.408 128.099 95.0954 128.426 94.862 128.855C94.6287 129.285 94.512 129.789 94.512 130.367C94.512 130.955 94.6287 131.469 94.862 131.907C95.0954 132.337 95.408 132.668 95.8 132.901C96.192 133.125 96.626 133.237 97.102 133.237C97.578 133.237 98.012 133.125 98.404 132.901C98.8054 132.668 99.1227 132.337 99.356 131.907C99.5894 131.469 99.706 130.96 99.706 130.381ZM110.147 130.101C110.147 130.344 110.133 130.601 110.105 130.871H103.973C104.02 131.627 104.276 132.22 104.743 132.649C105.219 133.069 105.793 133.279 106.465 133.279C107.016 133.279 107.473 133.153 107.837 132.901C108.21 132.64 108.472 132.295 108.621 131.865H109.993C109.788 132.603 109.377 133.205 108.761 133.671C108.145 134.129 107.38 134.357 106.465 134.357C105.737 134.357 105.084 134.194 104.505 133.867C103.936 133.541 103.488 133.079 103.161 132.481C102.834 131.875 102.671 131.175 102.671 130.381C102.671 129.588 102.83 128.893 103.147 128.295C103.464 127.698 103.908 127.241 104.477 126.923C105.056 126.597 105.718 126.433 106.465 126.433C107.193 126.433 107.837 126.592 108.397 126.909C108.957 127.227 109.386 127.665 109.685 128.225C109.993 128.776 110.147 129.401 110.147 130.101ZM108.831 129.835C108.831 129.35 108.724 128.935 108.509 128.589C108.294 128.235 108 127.969 107.627 127.791C107.263 127.605 106.857 127.511 106.409 127.511C105.765 127.511 105.214 127.717 104.757 128.127C104.309 128.538 104.052 129.107 103.987 129.835H108.831Z" fill="#637381"/>
<rect x="148.008" y="63.2312" width="48" height="48" rx="8" fill="#F4F6F8"/>
<path d="M172.008 87.2311C174.955 87.2311 177.342 84.8445 177.342 81.8978C177.342 78.9511 174.955 76.5645 172.008 76.5645C169.062 76.5645 166.675 78.9511 166.675 81.8978C166.675 84.8445 169.062 87.2311 172.008 87.2311ZM172.008 89.8978C168.448 89.8978 161.342 91.6845 161.342 95.2311V96.5645C161.342 97.2978 161.942 97.8978 162.675 97.8978H181.342C182.075 97.8978 182.675 97.2978 182.675 96.5645V95.2311C182.675 91.6845 175.568 89.8978 172.008 89.8978Z" fill="#C4CDD5"/>
<path d="M150.018 127.973C150.27 127.535 150.643 127.171 151.138 126.881C151.642 126.583 152.225 126.433 152.888 126.433C153.569 126.433 154.185 126.597 154.736 126.923C155.296 127.25 155.734 127.712 156.052 128.309C156.369 128.897 156.528 129.583 156.528 130.367C156.528 131.142 156.369 131.833 156.052 132.439C155.734 133.046 155.296 133.517 154.736 133.853C154.185 134.189 153.569 134.357 152.888 134.357C152.234 134.357 151.656 134.213 151.152 133.923C150.657 133.625 150.279 133.256 150.018 132.817V137.871H148.744V126.559H150.018V127.973ZM155.226 130.367C155.226 129.789 155.109 129.285 154.876 128.855C154.642 128.426 154.325 128.099 153.924 127.875C153.532 127.651 153.098 127.539 152.622 127.539C152.155 127.539 151.721 127.656 151.32 127.889C150.928 128.113 150.61 128.445 150.368 128.883C150.134 129.313 150.018 129.812 150.018 130.381C150.018 130.96 150.134 131.469 150.368 131.907C150.61 132.337 150.928 132.668 151.32 132.901C151.721 133.125 152.155 133.237 152.622 133.237C153.098 133.237 153.532 133.125 153.924 132.901C154.325 132.668 154.642 132.337 154.876 131.907C155.109 131.469 155.226 130.955 155.226 130.367ZM165.205 130.101C165.205 130.344 165.191 130.601 165.163 130.871H159.031C159.077 131.627 159.334 132.22 159.801 132.649C160.277 133.069 160.851 133.279 161.523 133.279C162.073 133.279 162.531 133.153 162.895 132.901C163.268 132.64 163.529 132.295 163.679 131.865H165.051C164.845 132.603 164.435 133.205 163.819 133.671C163.203 134.129 162.437 134.357 161.523 134.357C160.795 134.357 160.141 134.194 159.563 133.867C158.993 133.541 158.545 133.079 158.219 132.481C157.892 131.875 157.729 131.175 157.729 130.381C157.729 129.588 157.887 128.893 158.205 128.295C158.522 127.698 158.965 127.241 159.535 126.923C160.113 126.597 160.776 126.433 161.523 126.433C162.251 126.433 162.895 126.592 163.455 126.909C164.015 127.227 164.444 127.665 164.743 128.225C165.051 128.776 165.205 129.401 165.205 130.101ZM163.889 129.835C163.889 129.35 163.781 128.935 163.567 128.589C163.352 128.235 163.058 127.969 162.685 127.791C162.321 127.605 161.915 127.511 161.467 127.511C160.823 127.511 160.272 127.717 159.815 128.127C159.367 128.538 159.11 129.107 159.045 129.835H163.889ZM170.232 134.357C169.514 134.357 168.86 134.194 168.272 133.867C167.694 133.541 167.236 133.079 166.9 132.481C166.574 131.875 166.41 131.175 166.41 130.381C166.41 129.597 166.578 128.907 166.914 128.309C167.26 127.703 167.726 127.241 168.314 126.923C168.902 126.597 169.56 126.433 170.288 126.433C171.016 126.433 171.674 126.597 172.262 126.923C172.85 127.241 173.312 127.698 173.648 128.295C173.994 128.893 174.166 129.588 174.166 130.381C174.166 131.175 173.989 131.875 173.634 132.481C173.289 133.079 172.818 133.541 172.22 133.867C171.623 134.194 170.96 134.357 170.232 134.357ZM170.232 133.237C170.69 133.237 171.119 133.13 171.52 132.915C171.922 132.701 172.244 132.379 172.486 131.949C172.738 131.52 172.864 130.997 172.864 130.381C172.864 129.765 172.743 129.243 172.5 128.813C172.258 128.384 171.94 128.067 171.548 127.861C171.156 127.647 170.732 127.539 170.274 127.539C169.808 127.539 169.378 127.647 168.986 127.861C168.604 128.067 168.296 128.384 168.062 128.813C167.829 129.243 167.712 129.765 167.712 130.381C167.712 131.007 167.824 131.534 168.048 131.963C168.282 132.393 168.59 132.715 168.972 132.929C169.355 133.135 169.775 133.237 170.232 133.237ZM177.115 127.973C177.367 127.535 177.741 127.171 178.235 126.881C178.739 126.583 179.323 126.433 179.985 126.433C180.667 126.433 181.283 126.597 181.833 126.923C182.393 127.25 182.832 127.712 183.149 128.309C183.467 128.897 183.625 129.583 183.625 130.367C183.625 131.142 183.467 131.833 183.149 132.439C182.832 133.046 182.393 133.517 181.833 133.853C181.283 134.189 180.667 134.357 179.985 134.357C179.332 134.357 178.753 134.213 178.249 133.923C177.755 133.625 177.377 133.256 177.115 132.817V137.871H175.841V126.559H177.115V127.973ZM182.323 130.367C182.323 129.789 182.207 129.285 181.973 128.855C181.74 128.426 181.423 128.099 181.021 127.875C180.629 127.651 180.195 127.539 179.719 127.539C179.253 127.539 178.819 127.656 178.417 127.889C178.025 128.113 177.708 128.445 177.465 128.883C177.232 129.313 177.115 129.812 177.115 130.381C177.115 130.96 177.232 131.469 177.465 131.907C177.708 132.337 178.025 132.668 178.417 132.901C178.819 133.125 179.253 133.237 179.719 133.237C180.195 133.237 180.629 133.125 181.021 132.901C181.423 132.668 181.74 132.337 181.973 131.907C182.207 131.469 182.323 130.955 182.323 130.367ZM186.576 123.871V134.231H185.302V123.871H186.576ZM195.748 130.101C195.748 130.344 195.734 130.601 195.706 130.871H189.574C189.62 131.627 189.877 132.22 190.344 132.649C190.82 133.069 191.394 133.279 192.066 133.279C192.616 133.279 193.074 133.153 193.438 132.901C193.811 132.64 194.072 132.295 194.222 131.865H195.594C195.388 132.603 194.978 133.205 194.362 133.671C193.746 134.129 192.98 134.357 192.066 134.357C191.338 134.357 190.684 134.194 190.106 133.867C189.536 133.541 189.088 133.079 188.762 132.481C188.435 131.875 188.272 131.175 188.272 130.381C188.272 129.588 188.43 128.893 188.748 128.295C189.065 127.698 189.508 127.241 190.078 126.923C190.656 126.597 191.319 126.433 192.066 126.433C192.794 126.433 193.438 126.592 193.998 126.909C194.558 127.227 194.987 127.665 195.286 128.225C195.594 128.776 195.748 129.401 195.748 130.101ZM194.432 129.835C194.432 129.35 194.324 128.935 194.11 128.589C193.895 128.235 193.601 127.969 193.228 127.791C192.864 127.605 192.458 127.511 192.01 127.511C191.366 127.511 190.815 127.717 190.358 128.127C189.91 128.538 189.653 129.107 189.588 129.835H194.432Z" fill="#637381"/>
<rect x="241.508" y="63.2312" width="48" height="48" rx="8" fill="#7C0D60"/>
<path fill-rule="evenodd" clip-rule="evenodd" d="M271.735 88.7378C273.562 89.9778 274.842 91.6578 274.842 93.8978V97.8978H278.842C279.575 97.8978 280.175 97.2978 280.175 96.5645V93.8978C280.175 90.9911 275.415 89.2711 271.735 88.7378Z" fill="white"/>
<path d="M261.508 87.2311C264.454 87.2311 266.842 84.8433 266.842 81.8978C266.842 78.9523 264.454 76.5645 261.508 76.5645C258.563 76.5645 256.175 78.9523 256.175 81.8978C256.175 84.8433 258.563 87.2311 261.508 87.2311Z" fill="white"/>
<path fill-rule="evenodd" clip-rule="evenodd" d="M269.508 87.2311C272.455 87.2311 274.842 84.8445 274.842 81.8978C274.842 78.9511 272.455 76.5645 269.508 76.5645C268.882 76.5645 268.295 76.6978 267.735 76.8845C268.842 78.2578 269.508 80.0045 269.508 81.8978C269.508 83.7911 268.842 85.5378 267.735 86.9111C268.295 87.0978 268.882 87.2311 269.508 87.2311Z" fill="white"/>
<path fill-rule="evenodd" clip-rule="evenodd" d="M261.508 88.5645C257.948 88.5645 250.842 90.3511 250.842 93.8978V96.5645C250.842 97.2978 251.442 97.8978 252.175 97.8978H270.842C271.575 97.8978 272.175 97.2978 272.175 96.5645V93.8978C272.175 90.3511 265.068 88.5645 261.508 88.5645Z" fill="white"/>
<path d="M224.63 129.345C224.63 128.393 224.845 127.539 225.274 126.783C225.703 126.018 226.287 125.421 227.024 124.991C227.771 124.562 228.597 124.347 229.502 124.347C230.566 124.347 231.495 124.604 232.288 125.117C233.081 125.631 233.66 126.359 234.024 127.301H232.498C232.227 126.713 231.835 126.261 231.322 125.943C230.818 125.626 230.211 125.467 229.502 125.467C228.821 125.467 228.209 125.626 227.668 125.943C227.127 126.261 226.702 126.713 226.394 127.301C226.086 127.88 225.932 128.561 225.932 129.345C225.932 130.12 226.086 130.801 226.394 131.389C226.702 131.968 227.127 132.416 227.668 132.733C228.209 133.051 228.821 133.209 229.502 133.209C230.211 133.209 230.818 133.055 231.322 132.747C231.835 132.43 232.227 131.977 232.498 131.389H234.024C233.66 132.323 233.081 133.046 232.288 133.559C231.495 134.063 230.566 134.315 229.502 134.315C228.597 134.315 227.771 134.105 227.024 133.685C226.287 133.256 225.703 132.663 225.274 131.907C224.845 131.151 224.63 130.297 224.63 129.345ZM239.266 134.357C238.548 134.357 237.894 134.194 237.306 133.867C236.728 133.541 236.27 133.079 235.934 132.481C235.608 131.875 235.444 131.175 235.444 130.381C235.444 129.597 235.612 128.907 235.948 128.309C236.294 127.703 236.76 127.241 237.348 126.923C237.936 126.597 238.594 126.433 239.322 126.433C240.05 126.433 240.708 126.597 241.296 126.923C241.884 127.241 242.346 127.698 242.682 128.295C243.028 128.893 243.2 129.588 243.2 130.381C243.2 131.175 243.023 131.875 242.668 132.481C242.323 133.079 241.852 133.541 241.254 133.867C240.657 134.194 239.994 134.357 239.266 134.357ZM239.266 133.237C239.724 133.237 240.153 133.13 240.554 132.915C240.956 132.701 241.278 132.379 241.52 131.949C241.772 131.52 241.898 130.997 241.898 130.381C241.898 129.765 241.777 129.243 241.534 128.813C241.292 128.384 240.974 128.067 240.582 127.861C240.19 127.647 239.766 127.539 239.308 127.539C238.842 127.539 238.412 127.647 238.02 127.861C237.638 128.067 237.33 128.384 237.096 128.813C236.863 129.243 236.746 129.765 236.746 130.381C236.746 131.007 236.858 131.534 237.082 131.963C237.316 132.393 237.624 132.715 238.006 132.929C238.389 133.135 238.809 133.237 239.266 133.237ZM254.101 126.419C254.699 126.419 255.231 126.545 255.697 126.797C256.164 127.04 256.533 127.409 256.803 127.903C257.074 128.398 257.209 129 257.209 129.709V134.231H255.949V129.891C255.949 129.126 255.758 128.543 255.375 128.141C255.002 127.731 254.493 127.525 253.849 127.525C253.187 127.525 252.659 127.74 252.267 128.169C251.875 128.589 251.679 129.201 251.679 130.003V134.231H250.419V129.891C250.419 129.126 250.228 128.543 249.845 128.141C249.472 127.731 248.963 127.525 248.319 127.525C247.657 127.525 247.129 127.74 246.737 128.169C246.345 128.589 246.149 129.201 246.149 130.003V134.231H244.875V126.559H246.149V127.665C246.401 127.264 246.737 126.956 247.157 126.741C247.587 126.527 248.058 126.419 248.571 126.419C249.215 126.419 249.785 126.564 250.279 126.853C250.774 127.143 251.143 127.567 251.385 128.127C251.6 127.586 251.955 127.166 252.449 126.867C252.944 126.569 253.495 126.419 254.101 126.419ZM268.525 126.419C269.123 126.419 269.655 126.545 270.121 126.797C270.588 127.04 270.957 127.409 271.227 127.903C271.498 128.398 271.633 129 271.633 129.709V134.231H270.373V129.891C270.373 129.126 270.182 128.543 269.799 128.141C269.426 127.731 268.917 127.525 268.273 127.525C267.611 127.525 267.083 127.74 266.691 128.169C266.299 128.589 266.103 129.201 266.103 130.003V134.231H264.843V129.891C264.843 129.126 264.652 128.543 264.269 128.141C263.896 127.731 263.387 127.525 262.743 127.525C262.081 127.525 261.553 127.74 261.161 128.169C260.769 128.589 260.573 129.201 260.573 130.003V134.231H259.299V126.559H260.573V127.665C260.825 127.264 261.161 126.956 261.581 126.741C262.011 126.527 262.482 126.419 262.995 126.419C263.639 126.419 264.209 126.564 264.703 126.853C265.198 127.143 265.567 127.567 265.809 128.127C266.024 127.586 266.379 127.166 266.873 126.867C267.368 126.569 267.919 126.419 268.525 126.419ZM280.527 126.559V134.231H279.253V133.097C279.01 133.489 278.67 133.797 278.231 134.021C277.802 134.236 277.326 134.343 276.803 134.343C276.206 134.343 275.669 134.222 275.193 133.979C274.717 133.727 274.339 133.354 274.059 132.859C273.788 132.365 273.653 131.763 273.653 131.053V126.559H274.913V130.885C274.913 131.641 275.104 132.225 275.487 132.635C275.87 133.037 276.392 133.237 277.055 133.237C277.736 133.237 278.273 133.027 278.665 132.607C279.057 132.187 279.253 131.576 279.253 130.773V126.559H280.527ZM286.416 126.419C287.35 126.419 288.106 126.704 288.684 127.273C289.263 127.833 289.552 128.645 289.552 129.709V134.231H288.292V129.891C288.292 129.126 288.101 128.543 287.718 128.141C287.336 127.731 286.813 127.525 286.15 127.525C285.478 127.525 284.942 127.735 284.54 128.155C284.148 128.575 283.952 129.187 283.952 129.989V134.231H282.678V126.559H283.952V127.651C284.204 127.259 284.545 126.956 284.974 126.741C285.413 126.527 285.894 126.419 286.416 126.419ZM292.291 125.313C292.049 125.313 291.843 125.229 291.675 125.061C291.507 124.893 291.423 124.688 291.423 124.445C291.423 124.203 291.507 123.997 291.675 123.829C291.843 123.661 292.049 123.577 292.291 123.577C292.525 123.577 292.721 123.661 292.879 123.829C293.047 123.997 293.131 124.203 293.131 124.445C293.131 124.688 293.047 124.893 292.879 125.061C292.721 125.229 292.525 125.313 292.291 125.313ZM292.907 126.559V134.231H291.633V126.559H292.907ZM296.633 127.609V132.131C296.633 132.505 296.712 132.771 296.871 132.929C297.029 133.079 297.305 133.153 297.697 133.153H298.635V134.231H297.487C296.777 134.231 296.245 134.068 295.891 133.741C295.536 133.415 295.359 132.878 295.359 132.131V127.609H294.365V126.559H295.359V124.627H296.633V126.559H298.635V127.609H296.633ZM306.786 126.559L302.166 137.843H300.85L302.362 134.147L299.268 126.559H300.682L303.09 132.775L305.47 126.559H306.786Z" fill="#050401"/>
<rect width="390" height="40" transform="translate(32.0084 152.231)" fill="#F4F6F8"/>
<path d="M223.133 175.231L227.013 171.351L230.893 175.231C231.283 175.621 231.913 175.621 232.303 175.231C232.693 174.841 232.693 174.211 232.303 173.821L227.713 169.231C227.323 168.841 226.693 168.841 226.303 169.231L221.713 173.821C221.323 174.211 221.323 174.841 221.713 175.231C222.103 175.611 222.743 175.621 223.133 175.231Z" fill="black"/>
</g>
<defs>
<filter id="filter0_dd_81_4845" x="0.00842285" y="0.231201" width="454" height="240" filterUnits="userSpaceOnUse" color-interpolation-filters="sRGB">
<feFlood flood-opacity="0" result="BackgroundImageFix"/>
<feColorMatrix in="SourceAlpha" type="matrix" values="0 0 0 0 0 0 0 0 0 0 0 0 0 0 0 0 0 0 127 0" result="hardAlpha"/>
<feMorphology radius="4" operator="erode" in="SourceAlpha" result="effect1_dropShadow_81_4845"/>
<feOffset dy="12"/>
<feGaussianBlur stdDeviation="12"/>
<feColorMatrix type="matrix" values="0 0 0 0 0.568627 0 0 0 0 0.619608 0 0 0 0 0.670588 0 0 0 0.12 0"/>
<feBlend mode="normal" in2="BackgroundImageFix" result="effect1_dropShadow_81_4845"/>
<feColorMatrix in="SourceAlpha" type="matrix" values="0 0 0 0 0 0 0 0 0 0 0 0 0 0 0 0 0 0 127 0" result="hardAlpha"/>
<feOffset/>
<feGaussianBlur stdDeviation="1"/>
<feComposite in2="hardAlpha" operator="out"/>
<feColorMatrix type="matrix" values="0 0 0 0 0.568627 0 0 0 0 0.619608 0 0 0 0 0.670588 0 0 0 0.2 0"/>
<feBlend mode="normal" in2="effect1_dropShadow_81_4845" result="effect2_dropShadow_81_4845"/>
<feBlend mode="normal" in="SourceGraphic" in2="effect2_dropShadow_81_4845" result="shape"/>
</filter>
</defs>
</svg>
