<svg width="40" height="93" viewBox="0 0 40 93" fill="none" xmlns="http://www.w3.org/2000/svg">
<rect width="40" height="40" rx="16" fill="#F4F6F8"/>
<path d="M29.6901 26.523L24.9701 21.803C24.4901 21.323 23.9801 21.213 23.3901 21.213L20.8501 23.753C20.8501 24.343 20.9601 24.863 21.4401 25.333L26.1601 30.053C26.5501 30.443 27.1801 30.443 27.5701 30.053L29.6901 27.933C30.0801 27.553 30.0801 26.913 29.6901 26.523Z" fill="#7C0D60"/>
<path d="M24.6501 17.843C25.0401 18.233 25.6701 18.233 26.0601 17.843L26.7701 17.133L28.8901 19.253C30.0601 18.083 30.0601 16.183 28.8901 15.013L26.0601 12.183C25.6701 11.793 25.0401 11.793 24.6501 12.183L23.9401 12.893V10.353C23.9401 9.73297 23.1801 9.40297 22.7301 9.85297L20.1901 12.393C19.7401 12.843 20.0701 13.603 20.6901 13.603H23.2301L22.5201 14.313C22.1301 14.703 22.1301 15.333 22.5201 15.723L22.8701 16.073L19.9801 18.963L15.8701 14.833V13.833C15.8701 13.563 15.7601 13.313 15.5801 13.123L13.5601 11.093C13.1701 10.703 12.5401 10.703 12.1501 11.093L10.7301 12.513C10.3401 12.903 10.3401 13.533 10.7301 13.923L12.7501 15.953C12.9401 16.143 13.1901 16.243 13.4601 16.243H14.4601L18.5901 20.373L17.7401 21.223H16.4401C15.9101 21.223 15.4001 21.433 15.0301 21.813L10.3101 26.533C9.92008 26.923 9.92008 27.553 10.3101 27.943L12.4301 30.063C12.8201 30.453 13.4501 30.453 13.8401 30.063L18.5601 25.343C18.9401 24.963 19.1501 24.463 19.1501 23.933V22.643L24.3001 17.493L24.6501 17.843Z" fill="#7C0D60"/>
<rect y="53" width="40" height="40" rx="16" fill="#F4F6F8"/>
<path d="M27 65H22.82C22.4 63.84 21.3 63 20 63C18.7 63 17.6 63.84 17.18 65H13C11.9 65 11 65.9 11 67V81C11 82.1 11.9 83 13 83H27C28.1 83 29 82.1 29 81V67C29 65.9 28.1 65 27 65ZM20 64.75C20.41 64.75 20.75 65.09 20.75 65.5C20.75 65.91 20.41 66.25 20 66.25C19.59 66.25 19.25 65.91 19.25 65.5C19.25 65.09 19.59 64.75 20 64.75ZM16.9 79H15.5C15.22 79 15 78.78 15 78.5V77.07C15 76.94 15.05 76.81 15.15 76.72L20.96 70.91L23.08 73.03L17.25 78.86C17.16 78.95 17.03 79 16.9 79ZM24.85 71.27L23.79 72.33L21.67 70.21L22.73 69.15C22.93 68.95 23.24 68.95 23.44 69.15L24.85 70.56C25.05 70.76 25.05 71.07 24.85 71.27Z" fill="#7C0D60"/>
</svg>
