<svg width="49" height="48" viewBox="0 0 49 48" fill="none" xmlns="http://www.w3.org/2000/svg">
<rect x="0.5" width="48" height="48" rx="8" fill="#801464" fill-opacity="0.16"/>
<g clip-path="url(#clip0_113_51371)">
<path d="M24.5 25C26.6733 25 28.5933 25.52 30.1533 26.2C31.5933 26.84 32.5 28.28 32.5 29.84V30.6667C32.5 31.4 31.9 32 31.1667 32H17.8333C17.1 32 16.5 31.4 16.5 30.6667V29.8533C16.5 28.28 17.4067 26.84 18.8467 26.2133C20.4067 25.52 22.3267 25 24.5 25ZM13.8333 25.3333C15.3 25.3333 16.5 24.1333 16.5 22.6667C16.5 21.2 15.3 20 13.8333 20C12.3667 20 11.1667 21.2 11.1667 22.6667C11.1667 24.1333 12.3667 25.3333 13.8333 25.3333ZM15.34 26.8C14.8467 26.72 14.3533 26.6667 13.8333 26.6667C12.5133 26.6667 11.26 26.9467 10.1267 27.44C9.14 27.8667 8.5 28.8267 8.5 29.9067V30.6667C8.5 31.4 9.1 32 9.83333 32H14.5V29.8533C14.5 28.7467 14.8067 27.7067 15.34 26.8ZM35.1667 25.3333C36.6333 25.3333 37.8333 24.1333 37.8333 22.6667C37.8333 21.2 36.6333 20 35.1667 20C33.7 20 32.5 21.2 32.5 22.6667C32.5 24.1333 33.7 25.3333 35.1667 25.3333ZM40.5 29.9067C40.5 28.8267 39.86 27.8667 38.8733 27.44C37.74 26.9467 36.4867 26.6667 35.1667 26.6667C34.6467 26.6667 34.1533 26.72 33.66 26.8C34.1933 27.7067 34.5 28.7467 34.5 29.8533V32H39.1667C39.9 32 40.5 31.4 40.5 30.6667V29.9067ZM24.5 16C26.7133 16 28.5 17.7867 28.5 20C28.5 22.2133 26.7133 24 24.5 24C22.2867 24 20.5 22.2133 20.5 20C20.5 17.7867 22.2867 16 24.5 16Z" fill="#801464"/>
</g>
<defs>
<clipPath id="clip0_113_51371">
<rect width="32" height="32" fill="white" transform="translate(8.5 8)"/>
</clipPath>
</defs>
</svg>
