<svg width="49" height="48" viewBox="0 0 49 48" fill="none" xmlns="http://www.w3.org/2000/svg">
<rect x="0.5" width="48" height="48" rx="8" fill="#801464" fill-opacity="0.16"/>
<path d="M14.4383 25.5682V29.3148C14.4383 30.2882 14.9716 31.1948 15.825 31.6615L22.4916 35.3015C23.2916 35.7415 24.2516 35.7415 25.0516 35.3015L31.7183 31.6615C32.5716 31.1948 33.105 30.2882 33.105 29.3148V25.5682L25.0516 29.9682C24.2516 30.4082 23.2916 30.4082 22.4916 29.9682L14.4383 25.5682ZM22.4916 12.6882L11.2516 18.8215C10.3316 19.3282 10.3316 20.6615 11.2516 21.1682L22.4916 27.3015C23.2916 27.7415 24.2516 27.7415 25.0516 27.3015L35.7716 21.4482V29.3282C35.7716 30.0615 36.3716 30.6615 37.105 30.6615C37.8383 30.6615 38.4383 30.0615 38.4383 29.3282V20.7815C38.4383 20.2882 38.1716 19.8482 37.745 19.6082L25.0516 12.6882C24.2516 12.2615 23.2916 12.2615 22.4916 12.6882Z" fill="#801464"/>
</svg>
