<svg width="43" height="47" viewBox="0 0 43 47" fill="none" xmlns="http://www.w3.org/2000/svg">
<path id="Arrow 02" d="M1.10612 42.3182C1.96495 42.4053 2.80342 42.3308 3.67245 42.4987C11.3057 44.1198 17.6421 42.1797 23.3074 38.7587C25.2585 37.5817 26.9198 35.7069 28.0373 33.6819C31.3136 27.9639 32.9635 21.5151 32.7534 14.4028C32.697 12.3538 32.2238 10.2017 31.4255 8.03179C31.2173 8.62216 30.9735 9.25069 30.811 9.88368C30.3135 11.7019 29.8617 13.5626 29.2371 15.3337C28.9679 16.0813 28.3633 16.7302 27.7486 17.2983C27.5352 17.5273 26.8034 17.4873 26.4934 17.2698C26.1834 17.0522 25.8935 16.3544 26.0256 16.1209C27.859 11.7682 28.2033 6.81247 28.9746 2.0406C29.2486 0.370662 30.0361 -0.10778 31.698 0.584893C35.7944 2.33344 39.5047 4.86321 42.773 8.0508C42.8645 8.13604 42.8595 8.41658 42.9206 8.90133C39.816 10.2158 37.5284 6.80107 34.164 5.73445C34.464 6.51309 34.7436 7.13014 34.8962 7.70013C37.506 19.1158 35.3183 28.9853 29.7915 37.6692C28.9889 38.9893 27.7594 40.1256 26.4638 41.0576C21.6827 44.4467 16.0932 46.2271 9.69013 46.0372C7.62184 45.9642 5.43651 45.283 3.34268 44.6871C2.50922 44.481 1.73153 43.7565 0.984392 43.2743C1.02497 42.9556 1.06554 42.6369 1.10612 42.3182Z" fill="#7C0D60"/>
</svg>
