<svg width="40" height="40" viewBox="0 0 40 40" fill="none" xmlns="http://www.w3.org/2000/svg">
<rect width="40" height="40" rx="20" fill="#F9FAFB"/>
<path d="M20.949 10.7519L15.409 16.2919C15.039 16.6619 14.829 17.1719 14.829 17.7019V27.6919C14.829 28.7919 15.729 29.6919 16.829 29.6919H25.829C26.629 29.6919 27.349 29.2119 27.669 28.4819L30.929 20.8719C31.769 18.8919 30.319 16.6919 28.169 16.6919H22.519L23.469 12.1119C23.569 11.6119 23.419 11.1019 23.059 10.7419C22.469 10.1619 21.529 10.1619 20.949 10.7519ZM10.829 29.6919C11.929 29.6919 12.829 28.7919 12.829 27.6919V19.6919C12.829 18.5919 11.929 17.6919 10.829 17.6919C9.72901 17.6919 8.82901 18.5919 8.82901 19.6919V27.6919C8.82901 28.7919 9.72901 29.6919 10.829 29.6919Z" fill="#FFC107"/>
</svg>
