<svg width="454" height="229" viewBox="0 0 454 229" fill="none" xmlns="http://www.w3.org/2000/svg">
<g filter="url(#filter0_dd_81_4847)">
<rect x="20" y="8" width="414" height="200" rx="8" fill="white" shape-rendering="crispEdges"/>
<rect width="390" height="27" transform="translate(32 24)" fill="white"/>
<path d="M48.774 37.718C48.774 36.494 49.05 35.396 49.602 34.424C50.154 33.44 50.904 32.672 51.852 32.12C52.812 31.568 53.874 31.292 55.038 31.292C56.406 31.292 57.6 31.622 58.62 32.282C59.64 32.942 60.384 33.878 60.852 35.09H58.89C58.542 34.334 58.038 33.752 57.378 33.344C56.73 32.936 55.95 32.732 55.038 32.732C54.162 32.732 53.376 32.936 52.68 33.344C51.984 33.752 51.438 34.334 51.042 35.09C50.646 35.834 50.448 36.71 50.448 37.718C50.448 38.714 50.646 39.59 51.042 40.346C51.438 41.09 51.984 41.666 52.68 42.074C53.376 42.482 54.162 42.686 55.038 42.686C55.95 42.686 56.73 42.488 57.378 42.092C58.038 41.684 58.542 41.102 58.89 40.346H60.852C60.384 41.546 59.64 42.476 58.62 43.136C57.6 43.784 56.406 44.108 55.038 44.108C53.874 44.108 52.812 43.838 51.852 43.298C50.904 42.746 50.154 41.984 49.602 41.012C49.05 40.04 48.774 38.942 48.774 37.718ZM62.6783 39.032C62.6783 38.024 62.8823 37.142 63.2903 36.386C63.6983 35.618 64.2563 35.024 64.9643 34.604C65.6843 34.184 66.4823 33.974 67.3583 33.974C68.2223 33.974 68.9723 34.16 69.6083 34.532C70.2443 34.904 70.7183 35.372 71.0303 35.936V34.136H72.6863V44H71.0303V42.164C70.7063 42.74 70.2203 43.22 69.5723 43.604C68.9363 43.976 68.1923 44.162 67.3403 44.162C66.4643 44.162 65.6723 43.946 64.9643 43.514C64.2563 43.082 63.6983 42.476 63.2903 41.696C62.8823 40.916 62.6783 40.028 62.6783 39.032ZM71.0303 39.05C71.0303 38.306 70.8803 37.658 70.5803 37.106C70.2803 36.554 69.8723 36.134 69.3563 35.846C68.8523 35.546 68.2943 35.396 67.6823 35.396C67.0703 35.396 66.5123 35.54 66.0083 35.828C65.5043 36.116 65.1023 36.536 64.8023 37.088C64.5023 37.64 64.3523 38.288 64.3523 39.032C64.3523 39.788 64.5023 40.448 64.8023 41.012C65.1023 41.564 65.5043 41.99 66.0083 42.29C66.5123 42.578 67.0703 42.722 67.6823 42.722C68.2943 42.722 68.8523 42.578 69.3563 42.29C69.8723 41.99 70.2803 41.564 70.5803 41.012C70.8803 40.448 71.0303 39.794 71.0303 39.05ZM80.2604 33.956C81.4604 33.956 82.4324 34.322 83.1764 35.054C83.9204 35.774 84.2924 36.818 84.2924 38.186V44H82.6724V38.42C82.6724 37.436 82.4264 36.686 81.9344 36.17C81.4424 35.642 80.7704 35.378 79.9184 35.378C79.0544 35.378 78.3644 35.648 77.8484 36.188C77.3444 36.728 77.0924 37.514 77.0924 38.546V44H75.4544V34.136H77.0924V35.54C77.4164 35.036 77.8544 34.646 78.4064 34.37C78.9704 34.094 79.5884 33.956 80.2604 33.956ZM90.64 42.488L93.7 34.136H95.446L91.576 44H89.668L85.798 34.136H87.562L90.64 42.488ZM96.4459 39.032C96.4459 38.024 96.6499 37.142 97.0579 36.386C97.4659 35.618 98.0239 35.024 98.7319 34.604C99.4519 34.184 100.25 33.974 101.126 33.974C101.99 33.974 102.74 34.16 103.376 34.532C104.012 34.904 104.486 35.372 104.798 35.936V34.136H106.454V44H104.798V42.164C104.474 42.74 103.988 43.22 103.34 43.604C102.704 43.976 101.96 44.162 101.108 44.162C100.232 44.162 99.4399 43.946 98.7319 43.514C98.0239 43.082 97.4659 42.476 97.0579 41.696C96.6499 40.916 96.4459 40.028 96.4459 39.032ZM104.798 39.05C104.798 38.306 104.648 37.658 104.348 37.106C104.048 36.554 103.64 36.134 103.124 35.846C102.62 35.546 102.062 35.396 101.45 35.396C100.838 35.396 100.28 35.54 99.7759 35.828C99.2719 36.116 98.8699 36.536 98.5699 37.088C98.2699 37.64 98.1199 38.288 98.1199 39.032C98.1199 39.788 98.2699 40.448 98.5699 41.012C98.8699 41.564 99.2719 41.99 99.7759 42.29C100.28 42.578 100.838 42.722 101.45 42.722C102.062 42.722 102.62 42.578 103.124 42.29C103.64 41.99 104.048 41.564 104.348 41.012C104.648 40.448 104.798 39.794 104.798 39.05ZM112.714 44.162C111.958 44.162 111.28 44.036 110.68 43.784C110.08 43.52 109.606 43.16 109.258 42.704C108.91 42.236 108.718 41.702 108.682 41.102H110.374C110.422 41.594 110.65 41.996 111.058 42.308C111.478 42.62 112.024 42.776 112.696 42.776C113.32 42.776 113.812 42.638 114.172 42.362C114.532 42.086 114.712 41.738 114.712 41.318C114.712 40.886 114.52 40.568 114.136 40.364C113.752 40.148 113.158 39.938 112.354 39.734C111.622 39.542 111.022 39.35 110.554 39.158C110.098 38.954 109.702 38.66 109.366 38.276C109.042 37.88 108.88 37.364 108.88 36.728C108.88 36.224 109.03 35.762 109.33 35.342C109.63 34.922 110.056 34.592 110.608 34.352C111.16 34.1 111.79 33.974 112.498 33.974C113.59 33.974 114.472 34.25 115.144 34.802C115.816 35.354 116.176 36.11 116.224 37.07H114.586C114.55 36.554 114.34 36.14 113.956 35.828C113.584 35.516 113.08 35.36 112.444 35.36C111.856 35.36 111.388 35.486 111.04 35.738C110.692 35.99 110.518 36.32 110.518 36.728C110.518 37.052 110.62 37.322 110.824 37.538C111.04 37.742 111.304 37.91 111.616 38.042C111.94 38.162 112.384 38.3 112.948 38.456C113.656 38.648 114.232 38.84 114.676 39.032C115.12 39.212 115.498 39.488 115.81 39.86C116.134 40.232 116.302 40.718 116.314 41.318C116.314 41.858 116.164 42.344 115.864 42.776C115.564 43.208 115.138 43.55 114.586 43.802C114.046 44.042 113.422 44.162 112.714 44.162Z" fill="black"/>
<rect x="60" y="63" width="48" height="48" rx="8" fill="#7C0D60"/>
<path d="M84 80.3333V77.6667C84 76.2 82.8 75 81.3333 75H73.3333C71.8667 75 70.6667 76.2 70.6667 77.6667V96.3333C70.6667 97.8 71.8667 99 73.3333 99H94.6667C96.1333 99 97.3333 97.8 97.3333 96.3333V83C97.3333 81.5333 96.1333 80.3333 94.6667 80.3333H84ZM81.3333 96.3333H73.3333V93.6667H81.3333V96.3333ZM81.3333 91H73.3333V88.3333H81.3333V91ZM81.3333 85.6667H73.3333V83H81.3333V85.6667ZM81.3333 80.3333H73.3333V77.6667H81.3333V80.3333ZM94.6667 96.3333H84V83H94.6667V96.3333ZM92 85.6667H86.6667V88.3333H92V85.6667ZM92 91H86.6667V93.6667H92V91Z" fill="#FEFEFE"/>
<path d="M57.8598 129.114C57.8598 128.162 58.0745 127.308 58.5038 126.552C58.9331 125.787 59.5165 125.189 60.2538 124.76C61.0005 124.331 61.8265 124.116 62.7318 124.116C63.7958 124.116 64.7245 124.373 65.5178 124.886C66.3111 125.399 66.8898 126.127 67.2538 127.07H65.7278C65.4571 126.482 65.0651 126.029 64.5518 125.712C64.0478 125.395 63.4411 125.236 62.7318 125.236C62.0505 125.236 61.4391 125.395 60.8978 125.712C60.3565 126.029 59.9318 126.482 59.6238 127.07C59.3158 127.649 59.1618 128.33 59.1618 129.114C59.1618 129.889 59.3158 130.57 59.6238 131.158C59.9318 131.737 60.3565 132.185 60.8978 132.502C61.4391 132.819 62.0505 132.978 62.7318 132.978C63.4411 132.978 64.0478 132.824 64.5518 132.516C65.0651 132.199 65.4571 131.746 65.7278 131.158H67.2538C66.8898 132.091 66.3111 132.815 65.5178 133.328C64.7245 133.832 63.7958 134.084 62.7318 134.084C61.8265 134.084 61.0005 133.874 60.2538 133.454C59.5165 133.025 58.9331 132.432 58.5038 131.676C58.0745 130.92 57.8598 130.066 57.8598 129.114ZM72.4963 134.126C71.7776 134.126 71.1243 133.963 70.5363 133.636C69.9576 133.309 69.5003 132.847 69.1643 132.25C68.8376 131.643 68.6743 130.943 68.6743 130.15C68.6743 129.366 68.8423 128.675 69.1783 128.078C69.5236 127.471 69.9903 127.009 70.5783 126.692C71.1663 126.365 71.8243 126.202 72.5523 126.202C73.2803 126.202 73.9383 126.365 74.5263 126.692C75.1143 127.009 75.5763 127.467 75.9123 128.064C76.2576 128.661 76.4303 129.357 76.4303 130.15C76.4303 130.943 76.2529 131.643 75.8983 132.25C75.5529 132.847 75.0816 133.309 74.4843 133.636C73.8869 133.963 73.2243 134.126 72.4963 134.126ZM72.4963 133.006C72.9536 133.006 73.3829 132.899 73.7843 132.684C74.1856 132.469 74.5076 132.147 74.7503 131.718C75.0023 131.289 75.1283 130.766 75.1283 130.15C75.1283 129.534 75.0069 129.011 74.7643 128.582C74.5216 128.153 74.2043 127.835 73.8123 127.63C73.4203 127.415 72.9956 127.308 72.5383 127.308C72.0716 127.308 71.6423 127.415 71.2503 127.63C70.8676 127.835 70.5596 128.153 70.3263 128.582C70.0929 129.011 69.9763 129.534 69.9763 130.15C69.9763 130.775 70.0883 131.303 70.3123 131.732C70.5456 132.161 70.8536 132.483 71.2363 132.698C71.6189 132.903 72.0389 133.006 72.4963 133.006ZM79.3793 123.64V134H78.1053V123.64H79.3793ZM82.8247 123.64V134H81.5507V123.64H82.8247ZM91.996 129.87C91.996 130.113 91.982 130.369 91.954 130.64H85.822C85.8686 131.396 86.1253 131.989 86.592 132.418C87.068 132.838 87.642 133.048 88.314 133.048C88.8646 133.048 89.322 132.922 89.686 132.67C90.0593 132.409 90.3206 132.063 90.47 131.634H91.842C91.6366 132.371 91.226 132.973 90.61 133.44C89.994 133.897 89.2286 134.126 88.314 134.126C87.586 134.126 86.9326 133.963 86.354 133.636C85.7846 133.309 85.3366 132.847 85.01 132.25C84.6833 131.643 84.52 130.943 84.52 130.15C84.52 129.357 84.6786 128.661 84.996 128.064C85.3133 127.467 85.7566 127.009 86.326 126.692C86.9046 126.365 87.5673 126.202 88.314 126.202C89.042 126.202 89.686 126.361 90.246 126.678C90.806 126.995 91.2353 127.434 91.534 127.994C91.842 128.545 91.996 129.17 91.996 129.87ZM90.68 129.604C90.68 129.119 90.5726 128.703 90.358 128.358C90.1433 128.003 89.8493 127.737 89.476 127.56C89.112 127.373 88.706 127.28 88.258 127.28C87.614 127.28 87.0633 127.485 86.606 127.896C86.158 128.307 85.9013 128.876 85.836 129.604H90.68ZM96.8416 126.202C97.5043 126.202 98.0829 126.347 98.5776 126.636C99.0816 126.925 99.4549 127.289 99.6976 127.728V126.328H100.986V134.168C100.986 134.868 100.836 135.489 100.538 136.03C100.239 136.581 99.8096 137.01 99.2496 137.318C98.6989 137.626 98.0549 137.78 97.3176 137.78C96.3096 137.78 95.4696 137.542 94.7976 137.066C94.1256 136.59 93.7289 135.941 93.6076 135.12H94.8676C95.0076 135.587 95.2969 135.96 95.7356 136.24C96.1743 136.529 96.7016 136.674 97.3176 136.674C98.0176 136.674 98.5869 136.455 99.0256 136.016C99.4736 135.577 99.6976 134.961 99.6976 134.168V132.558C99.4456 133.006 99.0723 133.379 98.5776 133.678C98.0829 133.977 97.5043 134.126 96.8416 134.126C96.1603 134.126 95.5396 133.958 94.9796 133.622C94.4289 133.286 93.9949 132.815 93.6776 132.208C93.3603 131.601 93.2016 130.911 93.2016 130.136C93.2016 129.352 93.3603 128.666 93.6776 128.078C93.9949 127.481 94.4289 127.019 94.9796 126.692C95.5396 126.365 96.1603 126.202 96.8416 126.202ZM99.6976 130.15C99.6976 129.571 99.5809 129.067 99.3476 128.638C99.1143 128.209 98.7969 127.882 98.3956 127.658C98.0036 127.425 97.5696 127.308 97.0936 127.308C96.6176 127.308 96.1836 127.42 95.7916 127.644C95.3996 127.868 95.0869 128.195 94.8536 128.624C94.6203 129.053 94.5036 129.557 94.5036 130.136C94.5036 130.724 94.6203 131.237 94.8536 131.676C95.0869 132.105 95.3996 132.437 95.7916 132.67C96.1836 132.894 96.6176 133.006 97.0936 133.006C97.5696 133.006 98.0036 132.894 98.3956 132.67C98.7969 132.437 99.1143 132.105 99.3476 131.676C99.5809 131.237 99.6976 130.729 99.6976 130.15ZM110.139 129.87C110.139 130.113 110.125 130.369 110.097 130.64H103.965C104.011 131.396 104.268 131.989 104.735 132.418C105.211 132.838 105.785 133.048 106.457 133.048C107.007 133.048 107.465 132.922 107.829 132.67C108.202 132.409 108.463 132.063 108.613 131.634H109.985C109.779 132.371 109.369 132.973 108.753 133.44C108.137 133.897 107.371 134.126 106.457 134.126C105.729 134.126 105.075 133.963 104.497 133.636C103.927 133.309 103.479 132.847 103.153 132.25C102.826 131.643 102.663 130.943 102.663 130.15C102.663 129.357 102.821 128.661 103.139 128.064C103.456 127.467 103.899 127.009 104.469 126.692C105.047 126.365 105.71 126.202 106.457 126.202C107.185 126.202 107.829 126.361 108.389 126.678C108.949 126.995 109.378 127.434 109.677 127.994C109.985 128.545 110.139 129.17 110.139 129.87ZM108.823 129.604C108.823 129.119 108.715 128.703 108.501 128.358C108.286 128.003 107.992 127.737 107.619 127.56C107.255 127.373 106.849 127.28 106.401 127.28C105.757 127.28 105.206 127.485 104.749 127.896C104.301 128.307 104.044 128.876 103.979 129.604H108.823Z" fill="#050401"/>
<rect x="148" y="63" width="48" height="48" rx="8" fill="#F4F6F8"/>
<path d="M172 86.9999C174.947 86.9999 177.333 84.6133 177.333 81.6666C177.333 78.7199 174.947 76.3333 172 76.3333C169.053 76.3333 166.667 78.7199 166.667 81.6666C166.667 84.6133 169.053 86.9999 172 86.9999ZM172 89.6666C168.44 89.6666 161.333 91.4533 161.333 94.9999V96.3333C161.333 97.0666 161.933 97.6666 162.667 97.6666H181.333C182.067 97.6666 182.667 97.0666 182.667 96.3333V94.9999C182.667 91.4533 175.56 89.6666 172 89.6666Z" fill="#C4CDD5"/>
<path d="M150.009 127.742C150.261 127.303 150.635 126.939 151.129 126.65C151.633 126.351 152.217 126.202 152.879 126.202C153.561 126.202 154.177 126.365 154.727 126.692C155.287 127.019 155.726 127.481 156.043 128.078C156.361 128.666 156.519 129.352 156.519 130.136C156.519 130.911 156.361 131.601 156.043 132.208C155.726 132.815 155.287 133.286 154.727 133.622C154.177 133.958 153.561 134.126 152.879 134.126C152.226 134.126 151.647 133.981 151.143 133.692C150.649 133.393 150.271 133.025 150.009 132.586V137.64H148.735V126.328H150.009V127.742ZM155.217 130.136C155.217 129.557 155.101 129.053 154.867 128.624C154.634 128.195 154.317 127.868 153.915 127.644C153.523 127.42 153.089 127.308 152.613 127.308C152.147 127.308 151.713 127.425 151.311 127.658C150.919 127.882 150.602 128.213 150.359 128.652C150.126 129.081 150.009 129.581 150.009 130.15C150.009 130.729 150.126 131.237 150.359 131.676C150.602 132.105 150.919 132.437 151.311 132.67C151.713 132.894 152.147 133.006 152.613 133.006C153.089 133.006 153.523 132.894 153.915 132.67C154.317 132.437 154.634 132.105 154.867 131.676C155.101 131.237 155.217 130.724 155.217 130.136ZM165.196 129.87C165.196 130.113 165.182 130.369 165.154 130.64H159.022C159.069 131.396 159.325 131.989 159.792 132.418C160.268 132.838 160.842 133.048 161.514 133.048C162.065 133.048 162.522 132.922 162.886 132.67C163.259 132.409 163.521 132.063 163.67 131.634H165.042C164.837 132.371 164.426 132.973 163.81 133.44C163.194 133.897 162.429 134.126 161.514 134.126C160.786 134.126 160.133 133.963 159.554 133.636C158.985 133.309 158.537 132.847 158.21 132.25C157.883 131.643 157.72 130.943 157.72 130.15C157.72 129.357 157.879 128.661 158.196 128.064C158.513 127.467 158.957 127.009 159.526 126.692C160.105 126.365 160.767 126.202 161.514 126.202C162.242 126.202 162.886 126.361 163.446 126.678C164.006 126.995 164.435 127.434 164.734 127.994C165.042 128.545 165.196 129.17 165.196 129.87ZM163.88 129.604C163.88 129.119 163.773 128.703 163.558 128.358C163.343 128.003 163.049 127.737 162.676 127.56C162.312 127.373 161.906 127.28 161.458 127.28C160.814 127.28 160.263 127.485 159.806 127.896C159.358 128.307 159.101 128.876 159.036 129.604H163.88ZM170.224 134.126C169.505 134.126 168.852 133.963 168.264 133.636C167.685 133.309 167.228 132.847 166.892 132.25C166.565 131.643 166.402 130.943 166.402 130.15C166.402 129.366 166.57 128.675 166.906 128.078C167.251 127.471 167.718 127.009 168.306 126.692C168.894 126.365 169.552 126.202 170.28 126.202C171.008 126.202 171.666 126.365 172.254 126.692C172.842 127.009 173.304 127.467 173.64 128.064C173.985 128.661 174.158 129.357 174.158 130.15C174.158 130.943 173.98 131.643 173.626 132.25C173.28 132.847 172.809 133.309 172.212 133.636C171.614 133.963 170.952 134.126 170.224 134.126ZM170.224 133.006C170.681 133.006 171.11 132.899 171.512 132.684C171.913 132.469 172.235 132.147 172.478 131.718C172.73 131.289 172.856 130.766 172.856 130.15C172.856 129.534 172.734 129.011 172.492 128.582C172.249 128.153 171.932 127.835 171.54 127.63C171.148 127.415 170.723 127.308 170.266 127.308C169.799 127.308 169.37 127.415 168.978 127.63C168.595 127.835 168.287 128.153 168.054 128.582C167.82 129.011 167.704 129.534 167.704 130.15C167.704 130.775 167.816 131.303 168.04 131.732C168.273 132.161 168.581 132.483 168.964 132.698C169.346 132.903 169.766 133.006 170.224 133.006ZM177.107 127.742C177.359 127.303 177.732 126.939 178.227 126.65C178.731 126.351 179.314 126.202 179.977 126.202C180.658 126.202 181.274 126.365 181.825 126.692C182.385 127.019 182.824 127.481 183.141 128.078C183.458 128.666 183.617 129.352 183.617 130.136C183.617 130.911 183.458 131.601 183.141 132.208C182.824 132.815 182.385 133.286 181.825 133.622C181.274 133.958 180.658 134.126 179.977 134.126C179.324 134.126 178.745 133.981 178.241 133.692C177.746 133.393 177.368 133.025 177.107 132.586V137.64H175.833V126.328H177.107V127.742ZM182.315 130.136C182.315 129.557 182.198 129.053 181.965 128.624C181.732 128.195 181.414 127.868 181.013 127.644C180.621 127.42 180.187 127.308 179.711 127.308C179.244 127.308 178.81 127.425 178.409 127.658C178.017 127.882 177.7 128.213 177.457 128.652C177.224 129.081 177.107 129.581 177.107 130.15C177.107 130.729 177.224 131.237 177.457 131.676C177.7 132.105 178.017 132.437 178.409 132.67C178.81 132.894 179.244 133.006 179.711 133.006C180.187 133.006 180.621 132.894 181.013 132.67C181.414 132.437 181.732 132.105 181.965 131.676C182.198 131.237 182.315 130.724 182.315 130.136ZM186.568 123.64V134H185.294V123.64H186.568ZM195.739 129.87C195.739 130.113 195.725 130.369 195.697 130.64H189.565C189.612 131.396 189.868 131.989 190.335 132.418C190.811 132.838 191.385 133.048 192.057 133.048C192.608 133.048 193.065 132.922 193.429 132.67C193.802 132.409 194.064 132.063 194.213 131.634H195.585C195.38 132.371 194.969 132.973 194.353 133.44C193.737 133.897 192.972 134.126 192.057 134.126C191.329 134.126 190.676 133.963 190.097 133.636C189.528 133.309 189.08 132.847 188.753 132.25C188.426 131.643 188.263 130.943 188.263 130.15C188.263 129.357 188.422 128.661 188.739 128.064C189.056 127.467 189.5 127.009 190.069 126.692C190.648 126.365 191.31 126.202 192.057 126.202C192.785 126.202 193.429 126.361 193.989 126.678C194.549 126.995 194.978 127.434 195.277 127.994C195.585 128.545 195.739 129.17 195.739 129.87ZM194.423 129.604C194.423 129.119 194.316 128.703 194.101 128.358C193.886 128.003 193.592 127.737 193.219 127.56C192.855 127.373 192.449 127.28 192.001 127.28C191.357 127.28 190.806 127.485 190.349 127.896C189.901 128.307 189.644 128.876 189.579 129.604H194.423Z" fill="#637381"/>
<rect x="241.5" y="63" width="48" height="48" rx="8" fill="#F4F6F8"/>
<path fill-rule="evenodd" clip-rule="evenodd" d="M271.727 88.5066C273.553 89.7466 274.833 91.4266 274.833 93.6666V97.6666H278.833C279.567 97.6666 280.167 97.0666 280.167 96.3333V93.6666C280.167 90.7599 275.407 89.0399 271.727 88.5066Z" fill="#C4CDD5"/>
<path d="M261.5 86.9999C264.446 86.9999 266.833 84.6121 266.833 81.6666C266.833 78.7211 264.446 76.3333 261.5 76.3333C258.554 76.3333 256.167 78.7211 256.167 81.6666C256.167 84.6121 258.554 86.9999 261.5 86.9999Z" fill="#C4CDD5"/>
<path fill-rule="evenodd" clip-rule="evenodd" d="M269.5 86.9999C272.447 86.9999 274.833 84.6133 274.833 81.6666C274.833 78.7199 272.447 76.3333 269.5 76.3333C268.873 76.3333 268.287 76.4666 267.727 76.6533C268.833 78.0266 269.5 79.7733 269.5 81.6666C269.5 83.5599 268.833 85.3066 267.727 86.6799C268.287 86.8666 268.873 86.9999 269.5 86.9999Z" fill="#C4CDD5"/>
<path fill-rule="evenodd" clip-rule="evenodd" d="M261.5 88.3333C257.94 88.3333 250.833 90.1199 250.833 93.6666V96.3333C250.833 97.0666 251.433 97.6666 252.167 97.6666H270.833C271.567 97.6666 272.167 97.0666 272.167 96.3333V93.6666C272.167 90.1199 265.06 88.3333 261.5 88.3333Z" fill="#C4CDD5"/>
<path d="M224.622 129.114C224.622 128.162 224.836 127.308 225.266 126.552C225.695 125.787 226.278 125.189 227.016 124.76C227.762 124.331 228.588 124.116 229.494 124.116C230.558 124.116 231.486 124.373 232.28 124.886C233.073 125.399 233.652 126.127 234.016 127.07H232.49C232.219 126.482 231.827 126.029 231.314 125.712C230.81 125.395 230.203 125.236 229.494 125.236C228.812 125.236 228.201 125.395 227.66 125.712C227.118 126.029 226.694 126.482 226.386 127.07C226.078 127.649 225.924 128.33 225.924 129.114C225.924 129.889 226.078 130.57 226.386 131.158C226.694 131.737 227.118 132.185 227.66 132.502C228.201 132.819 228.812 132.978 229.494 132.978C230.203 132.978 230.81 132.824 231.314 132.516C231.827 132.199 232.219 131.746 232.49 131.158H234.016C233.652 132.091 233.073 132.815 232.28 133.328C231.486 133.832 230.558 134.084 229.494 134.084C228.588 134.084 227.762 133.874 227.016 133.454C226.278 133.025 225.695 132.432 225.266 131.676C224.836 130.92 224.622 130.066 224.622 129.114ZM239.258 134.126C238.539 134.126 237.886 133.963 237.298 133.636C236.719 133.309 236.262 132.847 235.926 132.25C235.599 131.643 235.436 130.943 235.436 130.15C235.436 129.366 235.604 128.675 235.94 128.078C236.285 127.471 236.752 127.009 237.34 126.692C237.928 126.365 238.586 126.202 239.314 126.202C240.042 126.202 240.7 126.365 241.288 126.692C241.876 127.009 242.338 127.467 242.674 128.064C243.019 128.661 243.192 129.357 243.192 130.15C243.192 130.943 243.015 131.643 242.66 132.25C242.315 132.847 241.843 133.309 241.246 133.636C240.649 133.963 239.986 134.126 239.258 134.126ZM239.258 133.006C239.715 133.006 240.145 132.899 240.546 132.684C240.947 132.469 241.269 132.147 241.512 131.718C241.764 131.289 241.89 130.766 241.89 130.15C241.89 129.534 241.769 129.011 241.526 128.582C241.283 128.153 240.966 127.835 240.574 127.63C240.182 127.415 239.757 127.308 239.3 127.308C238.833 127.308 238.404 127.415 238.012 127.63C237.629 127.835 237.321 128.153 237.088 128.582C236.855 129.011 236.738 129.534 236.738 130.15C236.738 130.775 236.85 131.303 237.074 131.732C237.307 132.161 237.615 132.483 237.998 132.698C238.381 132.903 238.801 133.006 239.258 133.006ZM254.093 126.188C254.69 126.188 255.222 126.314 255.689 126.566C256.156 126.809 256.524 127.177 256.795 127.672C257.066 128.167 257.201 128.769 257.201 129.478V134H255.941V129.66C255.941 128.895 255.75 128.311 255.367 127.91C254.994 127.499 254.485 127.294 253.841 127.294C253.178 127.294 252.651 127.509 252.259 127.938C251.867 128.358 251.671 128.969 251.671 129.772V134H250.411V129.66C250.411 128.895 250.22 128.311 249.837 127.91C249.464 127.499 248.955 127.294 248.311 127.294C247.648 127.294 247.121 127.509 246.729 127.938C246.337 128.358 246.141 128.969 246.141 129.772V134H244.867V126.328H246.141V127.434C246.393 127.033 246.729 126.725 247.149 126.51C247.578 126.295 248.05 126.188 248.563 126.188C249.207 126.188 249.776 126.333 250.271 126.622C250.766 126.911 251.134 127.336 251.377 127.896C251.592 127.355 251.946 126.935 252.441 126.636C252.936 126.337 253.486 126.188 254.093 126.188ZM268.517 126.188C269.114 126.188 269.646 126.314 270.113 126.566C270.58 126.809 270.948 127.177 271.219 127.672C271.49 128.167 271.625 128.769 271.625 129.478V134H270.365V129.66C270.365 128.895 270.174 128.311 269.791 127.91C269.418 127.499 268.909 127.294 268.265 127.294C267.602 127.294 267.075 127.509 266.683 127.938C266.291 128.358 266.095 128.969 266.095 129.772V134H264.835V129.66C264.835 128.895 264.644 128.311 264.261 127.91C263.888 127.499 263.379 127.294 262.735 127.294C262.072 127.294 261.545 127.509 261.153 127.938C260.761 128.358 260.565 128.969 260.565 129.772V134H259.291V126.328H260.565V127.434C260.817 127.033 261.153 126.725 261.573 126.51C262.002 126.295 262.474 126.188 262.987 126.188C263.631 126.188 264.2 126.333 264.695 126.622C265.19 126.911 265.558 127.336 265.801 127.896C266.016 127.355 266.37 126.935 266.865 126.636C267.36 126.337 267.91 126.188 268.517 126.188ZM280.519 126.328V134H279.245V132.866C279.002 133.258 278.661 133.566 278.223 133.79C277.793 134.005 277.317 134.112 276.795 134.112C276.197 134.112 275.661 133.991 275.185 133.748C274.709 133.496 274.331 133.123 274.051 132.628C273.78 132.133 273.645 131.531 273.645 130.822V126.328H274.905V130.654C274.905 131.41 275.096 131.993 275.479 132.404C275.861 132.805 276.384 133.006 277.047 133.006C277.728 133.006 278.265 132.796 278.657 132.376C279.049 131.956 279.245 131.345 279.245 130.542V126.328H280.519ZM286.408 126.188C287.341 126.188 288.097 126.473 288.676 127.042C289.254 127.602 289.544 128.414 289.544 129.478V134H288.284V129.66C288.284 128.895 288.092 128.311 287.71 127.91C287.327 127.499 286.804 127.294 286.142 127.294C285.47 127.294 284.933 127.504 284.532 127.924C284.14 128.344 283.944 128.955 283.944 129.758V134H282.67V126.328H283.944V127.42C284.196 127.028 284.536 126.725 284.966 126.51C285.404 126.295 285.885 126.188 286.408 126.188ZM292.283 125.082C292.04 125.082 291.835 124.998 291.667 124.83C291.499 124.662 291.415 124.457 291.415 124.214C291.415 123.971 291.499 123.766 291.667 123.598C291.835 123.43 292.04 123.346 292.283 123.346C292.516 123.346 292.712 123.43 292.871 123.598C293.039 123.766 293.123 123.971 293.123 124.214C293.123 124.457 293.039 124.662 292.871 124.83C292.712 124.998 292.516 125.082 292.283 125.082ZM292.899 126.328V134H291.625V126.328H292.899ZM296.624 127.378V131.9C296.624 132.273 296.704 132.539 296.862 132.698C297.021 132.847 297.296 132.922 297.688 132.922H298.626V134H297.478C296.769 134 296.237 133.837 295.882 133.51C295.528 133.183 295.35 132.647 295.35 131.9V127.378H294.356V126.328H295.35V124.396H296.624V126.328H298.626V127.378H296.624ZM306.778 126.328L302.158 137.612H300.842L302.354 133.916L299.26 126.328H300.674L303.082 132.544L305.462 126.328H306.778Z" fill="#637381"/>
<rect width="390" height="40" transform="translate(32 152)" fill="#F4F6F8"/>
<path d="M223.125 175L227.005 171.12L230.885 175C231.275 175.39 231.905 175.39 232.295 175C232.685 174.61 232.685 173.98 232.295 173.59L227.705 169C227.315 168.61 226.685 168.61 226.295 169L221.705 173.59C221.315 173.98 221.315 174.61 221.705 175C222.095 175.38 222.735 175.39 223.125 175Z" fill="black"/>
</g>
<defs>
<filter id="filter0_dd_81_4847" x="0" y="0" width="454" height="240" filterUnits="userSpaceOnUse" color-interpolation-filters="sRGB">
<feFlood flood-opacity="0" result="BackgroundImageFix"/>
<feColorMatrix in="SourceAlpha" type="matrix" values="0 0 0 0 0 0 0 0 0 0 0 0 0 0 0 0 0 0 127 0" result="hardAlpha"/>
<feMorphology radius="4" operator="erode" in="SourceAlpha" result="effect1_dropShadow_81_4847"/>
<feOffset dy="12"/>
<feGaussianBlur stdDeviation="12"/>
<feColorMatrix type="matrix" values="0 0 0 0 0.568627 0 0 0 0 0.619608 0 0 0 0 0.670588 0 0 0 0.12 0"/>
<feBlend mode="normal" in2="BackgroundImageFix" result="effect1_dropShadow_81_4847"/>
<feColorMatrix in="SourceAlpha" type="matrix" values="0 0 0 0 0 0 0 0 0 0 0 0 0 0 0 0 0 0 127 0" result="hardAlpha"/>
<feOffset/>
<feGaussianBlur stdDeviation="1"/>
<feComposite in2="hardAlpha" operator="out"/>
<feColorMatrix type="matrix" values="0 0 0 0 0.568627 0 0 0 0 0.619608 0 0 0 0 0.670588 0 0 0 0.2 0"/>
<feBlend mode="normal" in2="effect1_dropShadow_81_4847" result="effect2_dropShadow_81_4847"/>
<feBlend mode="normal" in="SourceGraphic" in2="effect2_dropShadow_81_4847" result="shape"/>
</filter>
</defs>
</svg>
