<svg width="227" height="42" viewBox="0 0 227 42" fill="none" xmlns="http://www.w3.org/2000/svg">
<path d="M25.0417 8.625L19.2917 10.1667C18.5417 8.66667 17.9167 7.625 16.5 6.79167C15.5417 6.20833 14.3333 5.70833 12.9583 5.70833C11.5417 5.66666 10.2083 6 9.33333 6.54167C8.29167 7.16667 7.79167 8.125 7.79167 9.04167C7.79167 9.58333 8 10.0833 8.375 10.4583C8.91667 11.0417 10.2917 11.5833 11.7917 12.0417L17 13.5417C19.6667 14.3333 21.2083 15.125 22.5417 16.375C24.3333 18.0833 25.3333 20.2917 25.3333 22.75C25.3333 25.375 23.8333 28.125 21.4583 29.7083C19.1667 31.25 16.4167 31.625 13.25 31.625C9.25 31.625 5.83333 30.5833 3.375 27.5833C1.91667 25.7917 1.125 23.7083 0.666667 21.75L6.41667 20.2083C6.66667 21.6667 7.16667 23 7.91667 23.9167C9.125 25.5833 11.4583 26.3333 13.4583 26.3333C15.0417 26.3333 17.0417 25.875 18.125 25.0417C19.0833 24.3333 19.3333 23.4167 19.3333 22.5833C19.3333 21.7917 19.0417 21.0417 18.4167 20.5C17.75 19.9167 16.9167 19.5 15.75 19.1667L10.1667 17.5417C7.91667 16.9167 5.875 16.0417 4.41667 14.75C2.625 13.25 1.83333 11 1.83333 8.91667C1.83333 5.625 3.95833 2.79167 6.70833 1.54167C8.875 0.541664 11.0417 0.374998 13.0417 0.374998C15.0833 0.416666 17.3333 0.749999 19.3333 1.83333C21.875 3.20833 23.875 5.58333 25.0417 8.625ZM50.0495 15.375L44.3828 16.875C44.0911 15.875 43.5911 14.9167 42.7161 14.2083C41.8828 13.5 40.8828 13.1667 39.8411 13.1667C38.1745 13.1667 36.8411 13.7917 35.9245 15.0417C34.9661 16.2917 34.6745 18.0417 34.6745 19.75C34.6745 21.4583 34.9661 23.1667 35.9245 24.4167C36.8411 25.6667 38.1745 26.3333 39.8411 26.3333C40.8828 26.3333 42.0078 26.125 42.8411 25.375C43.6328 24.6667 43.9661 23.9167 44.2578 22.9583L50.0495 24.1667C49.4661 26.3333 48.1328 28.4167 46.3828 29.7083C44.3828 31.1667 42.7161 31.625 39.8411 31.625C36.0911 31.625 33.4245 30.4583 31.4245 27.9167C29.5078 25.5 28.6745 22.8333 28.6745 19.75C28.6745 16.5833 29.5495 13.8333 31.4245 11.625C33.5495 9.125 36.1745 7.875 39.9245 7.875C42.3411 7.875 43.8828 8.20833 45.7995 9.375C47.8828 10.625 49.4661 12.625 50.0495 15.375ZM69.1797 8.5H74.888V31H69.888V28.6667C69.8047 28.75 69.6797 28.875 69.5964 29C68.138 30.75 65.8464 31.5 63.8047 31.625C61.138 31.7917 58.4297 31.3333 56.263 29.2083C53.8047 26.7917 53.8047 22.875 53.8047 19.375V8.5H59.5547V19.125C59.5547 21.4583 59.888 23.7917 61.0547 25.0417C61.8464 25.9167 63.0547 26.375 64.5964 26.3333C65.638 26.2917 66.513 26 67.263 25.4583C68.0964 24.8333 68.6797 23.8333 68.9297 22.5833C69.138 21.5833 69.1797 19.8333 69.1797 18.2917V8.5ZM80.7057 31V0.374998H86.3724V31H80.7057ZM111.44 11.4583C113.19 13.6667 114.065 16.625 114.065 19.75C114.065 22.8333 113.357 25.7083 111.44 28.0417C109.607 30.3333 106.648 31.625 103.69 31.625C101.523 31.625 99.5234 31.125 97.8984 30.125V41H92.1901V8.5H97.1901V9.91667C98.8984 8.625 101.107 7.875 103.398 7.875C106.523 7.875 109.523 9.08333 111.44 11.4583ZM106.94 24.5833C107.732 23.4167 108.065 21.6667 108.065 19.75C108.065 17.8333 107.648 16.0833 106.857 14.9167C105.898 13.4583 104.44 12.9167 102.565 12.9167C101.023 12.9167 99.6901 13.4167 98.7734 14.5C97.6901 15.75 97.1901 17.7083 97.1901 19.75C97.1901 21.7917 97.6901 23.7917 98.7734 25C99.7734 26.0833 101.148 26.5833 102.773 26.5833C104.357 26.5833 105.982 26.0417 106.94 24.5833ZM125.635 12.875V21.125C125.635 22.875 125.552 24.3333 126.094 25.1667C126.635 26.0417 127.594 26.375 128.469 26.4583C129.552 26.5417 130.927 26.4583 132.135 26.2917V31C130.385 31.5 127.219 31.4583 125.552 31.1667C123.469 30.7917 122.177 30.125 120.969 28.3333C119.719 26.5 119.969 24.1667 119.969 21.4583V12.875H116.135V8.5H119.969V2.25H125.635V8.5H132.135V12.875H125.635ZM136.734 15.6667H149.234V20.0417H136.734V15.6667Z" fill="black"/>
<path d="M170.276 8.5H175.234V32.5417C175.234 36.0417 173.901 38.5417 171.068 40.125C168.776 41.4167 166.651 41.5833 164.693 41.5833C163.234 41.5833 161.318 41.1667 159.984 40.5833C158.359 39.7917 156.693 38.4167 155.734 36.75L160.984 34.2083C161.276 34.75 161.693 35.1667 162.193 35.5417C162.901 36.0417 164.026 36.25 164.734 36.25C166.026 36.25 167.359 35.875 168.193 35.25C169.234 34.4583 169.609 33.625 169.568 32.4583V30.125C167.943 31.125 165.943 31.625 163.776 31.625C160.818 31.625 157.859 30.3333 156.026 28.0417C154.109 25.7083 153.401 22.8333 153.401 19.75C153.401 16.625 154.276 13.6667 156.026 11.4583C157.943 9.08333 160.943 7.875 164.068 7.875C166.359 7.875 168.568 8.625 170.276 9.91667V8.5ZM164.693 26.5833C166.318 26.5833 167.693 26.0833 168.693 25C169.776 23.7917 170.276 21.7917 170.276 19.75C170.276 17.7083 169.776 15.75 168.693 14.5C167.776 13.4167 166.443 12.9167 164.901 12.9167C163.026 12.9167 161.568 13.4583 160.609 14.9167C159.818 16.0833 159.401 17.8333 159.401 19.75C159.401 21.6667 159.734 23.4167 160.526 24.5833C161.484 26.0417 163.109 26.5833 164.693 26.5833ZM185.891 21.3333C186.057 22.4583 186.391 23.5417 187.057 24.4167C187.974 25.6667 189.516 26.3333 191.182 26.3333C192.516 26.3333 193.557 26 194.391 25.3333C195.224 24.6667 195.599 24.0417 195.849 23.5L201.516 25.125C200.766 26.9583 199.349 28.7083 197.599 29.8333C195.849 30.9583 193.599 31.625 191.516 31.625C188.099 31.625 184.599 30.3333 182.557 27.875C180.724 25.625 179.807 22.9167 179.807 20.0417C179.807 16.7917 180.766 13.7917 182.557 11.625C184.641 9.16667 187.849 7.875 191.182 7.875C194.516 7.875 197.141 8.95833 199.224 11.4167C201.474 14.0417 202.016 17.4167 201.724 21.3333H185.891ZM191.182 12.7917C189.724 12.7917 188.224 13.2083 187.099 14.625C186.516 15.375 186.224 16.125 186.016 16.9583H196.057C195.974 16.0417 195.724 15.2083 195.141 14.4583C194.266 13.3333 192.724 12.7917 191.182 12.7917ZM224.409 10.2917C226.867 12.7083 226.867 16.625 226.867 20.125V31H221.117V20.375C221.117 18.0417 220.784 15.7083 219.617 14.4583C218.826 13.5833 217.617 13.125 216.076 13.1667C215.034 13.2083 214.159 13.5 213.409 14.0417C212.576 14.6667 211.992 15.6667 211.742 16.9167C211.534 17.9167 211.492 19.6667 211.492 21.2083V31H205.784V8.5H210.784V10.8333C210.867 10.75 210.992 10.625 211.076 10.5C212.534 8.75 214.826 8 216.867 7.875C219.534 7.70833 222.242 8.16666 224.409 10.2917Z" fill="#801464"/>
</svg>
